<svg width="230" height="79" viewBox="0 0 230 79" fill="none" xmlns="http://www.w3.org/2000/svg">
<rect x="0.5" y="13.5" width="34" height="57" rx="7.5" fill="white" stroke="black"/>
<rect x="39.5" y="13.5" width="34" height="57" rx="7.5" fill="white" stroke="black"/>
<rect x="78.5" y="13.5" width="34" height="57" rx="7.5" fill="white" stroke="black"/>
<rect x="117.5" y="13.5" width="34" height="57" rx="7.5" fill="white" stroke="black"/>
<rect x="156.5" y="13.5" width="34" height="57" rx="7.5" fill="white" stroke="black"/>
<rect x="195.5" y="13.5" width="34" height="57" rx="7.5" fill="white" stroke="black"/>
<path d="M8.16406 60V24.4922H27.4062V27.3984H11.6328V39.8906H22.9531V42.7969H11.6328V56.8828H28.2969V60H8.16406Z" fill="black"/>
<path d="M46.5859 35.2734H49.8203L56.3359 56.5781H56.7812L63.2969 35.2734H66.5312L58.9375 60H54.1797L46.5859 35.2734Z" fill="black"/>
<path d="M89.1016 56.5312C88.3359 55.3906 87.75 54.1172 87.3438 52.7109C86.9531 51.3047 86.7578 49.8281 86.7578 48.2812C86.7578 46.7344 86.8672 45.3281 87.0859 44.0625C87.3047 42.7812 87.5938 41.6953 87.9531 40.8047C88.3125 39.9141 88.75 39.125 89.2656 38.4375C89.7812 37.7344 90.3125 37.1719 90.8594 36.75C91.4062 36.3281 92 35.9844 92.6406 35.7188C93.75 35.25 94.8047 35.0156 95.8047 35.0156C96.8047 35.0156 97.6562 35.1094 98.3594 35.2969C99.0625 35.4688 99.8125 35.8359 100.609 36.3984C101.422 36.9453 102.117 37.6719 102.695 38.5781C104.039 40.7031 104.711 43.8359 104.711 47.9766H89.8516C89.8516 52.1484 90.9062 54.9922 93.0156 56.5078C94.0625 57.2578 95.2266 57.6328 96.5078 57.6328C98.9141 57.6328 100.961 56.1406 102.648 53.1562L104.781 54.6328C104.172 55.7578 103.375 56.7734 102.391 57.6797C100.516 59.3984 98.6641 60.2578 96.8359 60.2578C95.0078 60.2578 93.4531 59.9219 92.1719 59.25C90.8906 58.5781 89.8672 57.6719 89.1016 56.5312ZM89.9922 45.3516H101.617C101.617 43.0234 101.078 41.0938 100 39.5625C99.0938 38.2812 97.8047 37.6406 96.1328 37.6406C93.3984 37.6406 91.5703 38.9062 90.6484 41.4375C90.2109 42.625 89.9922 43.9297 89.9922 45.3516Z" fill="black"/>
<path d="M125.812 60V35.2734H128.906V39.3281C130.281 37.9688 131.586 36.9141 132.82 36.1641C134.055 35.3984 135.508 35.0156 137.18 35.0156C138.852 35.0156 140.266 35.5625 141.422 36.6562C142.578 37.75 143.156 39.3906 143.156 41.5781V60H140.062V41.5781C140.062 40.4062 139.641 39.4609 138.797 38.7422C137.969 38.0078 137.07 37.6406 136.102 37.6406C133.789 37.6406 131.391 38.9922 128.906 41.6953V60H125.812Z" fill="black"/>
<path d="M203.875 55.3125L206.195 53.8125C207.023 55.0938 207.945 56.0547 208.961 56.6953C209.977 57.3203 211.219 57.6328 212.688 57.6328C214.219 57.6328 215.461 57.2188 216.414 56.3906C217.211 55.7031 217.609 54.8594 217.609 53.8594C217.609 52.8594 217.438 52.0625 217.094 51.4688C216.75 50.875 216.266 50.3906 215.641 50.0156C214.594 49.4219 213.5 48.9922 212.359 48.7266C211.234 48.4453 210.344 48.1953 209.688 47.9766C209.047 47.7422 208.383 47.4297 207.695 47.0391C207.008 46.6484 206.414 46.2109 205.914 45.7266C204.773 44.6172 204.203 43.1562 204.203 41.3438C204.203 39.5156 204.93 38.0078 206.383 36.8203C207.852 35.6172 209.719 35.0156 211.984 35.0156C214.656 35.0156 216.914 35.9766 218.758 37.8984C219.102 38.2578 219.391 38.6094 219.625 38.9531L217.492 40.5469C217.383 40.4375 217.164 40.2109 216.836 39.8672C216.508 39.5078 216.297 39.2812 216.203 39.1875L215.594 38.6953C215.312 38.4453 215.078 38.2812 214.891 38.2031L214.094 37.9219C213.594 37.7344 212.75 37.6406 211.562 37.6406C210.375 37.6406 209.352 37.9844 208.492 38.6719C207.633 39.3438 207.203 40.0859 207.203 40.8984C207.203 41.7109 207.344 42.3672 207.625 42.8672C207.906 43.3516 208.328 43.7734 208.891 44.1328C209.797 44.6953 210.844 45.1562 212.031 45.5156C213.219 45.875 214 46.1172 214.375 46.2422C214.766 46.3672 215.281 46.5625 215.922 46.8281C216.578 47.0781 217.086 47.3203 217.445 47.5547C217.82 47.7891 218.242 48.1016 218.711 48.4922C219.18 48.8672 219.539 49.2656 219.789 49.6875C220.398 50.75 220.703 51.9062 220.703 53.1562C220.703 55.2344 219.914 56.9375 218.336 58.2656C216.758 59.5938 214.93 60.2578 212.852 60.2578C210.773 60.2578 209.023 59.8672 207.602 59.0859C206.195 58.2891 204.953 57.0312 203.875 55.3125Z" fill="black"/>
<path d="M166.844 37.8984V35.2734H171.016V26.25H174.109V35.2734H179.781V37.8984H174.109V53.5781C174.109 55.1562 174.352 56.2344 174.836 56.8125C175.32 57.3906 176.117 57.6797 177.227 57.6797C177.68 57.6797 178.219 57.6406 178.844 57.5625C179.469 57.4844 179.781 57.4375 179.781 57.4219V59.7422C178.75 60.1172 177.742 60.3047 176.758 60.3047C175.789 60.3047 175.125 60.2812 174.766 60.2344C174.406 60.1875 173.969 60.0391 173.453 59.7891C172.938 59.5391 172.516 59.1875 172.188 58.7344C171.406 57.6406 171.016 55.9219 171.016 53.5781V37.8984H166.844Z" fill="black"/>
</svg>
