<svg width="189" height="59" viewBox="0 0 189 59" fill="none" xmlns="http://www.w3.org/2000/svg">
<path d="M0 38V0.239998H3.84V38H0ZM5.76 38V0.239998H11.52V38H5.76ZM17.28 38V0.239998H19.2V38H17.28ZM9.536 45.04H5.376V43.568H15.616V45.04H11.264V58.416H9.536V45.04ZM21.125 38V0.239998H23.045V38H21.125ZM26.885 38V0.239998H30.725V38H26.885ZM38.405 38V0.239998H40.325V38H38.405ZM27.461 42.608H29.381V42.736C29.253 42.864 29.189 42.9707 29.189 43.056C29.1463 43.184 29.125 43.376 29.125 43.632V49.456C29.5517 48.816 30.085 48.2827 30.725 47.856C31.365 47.472 32.0263 47.28 32.709 47.28C33.733 47.28 34.5437 47.6427 35.141 48.368C35.7383 49.0933 36.037 50.2453 36.037 51.824V58.416H34.373V51.888C34.373 50.7787 34.181 49.9893 33.797 49.52C33.413 49.008 32.9223 48.752 32.325 48.752C31.813 48.752 31.3223 48.9013 30.853 49.2C30.341 49.456 29.9357 49.8613 29.637 50.416C29.2957 50.928 29.125 51.504 29.125 52.144V58.416H27.461V42.608ZM42.25 38V0.239998H44.17V38H42.25ZM46.09 38V0.239998H49.93V38H46.09ZM53.77 38V0.239998H55.69V38H53.77ZM53.322 58.672C51.7007 58.672 50.4207 58.1813 49.482 57.2C48.5007 56.2187 48.01 54.832 48.01 53.04C48.01 51.8453 48.2447 50.8 48.714 49.904C49.1407 49.0507 49.738 48.4107 50.506 47.984C51.2313 47.5147 52.0633 47.28 53.002 47.28C54.3247 47.28 55.3913 47.7067 56.202 48.56C57.0127 49.456 57.418 50.7573 57.418 52.464C57.418 52.6347 57.418 52.8907 57.418 53.232H49.674C49.7167 54.5547 50.0793 55.5573 50.762 56.24C51.4447 56.9227 52.3193 57.264 53.386 57.264C54.538 57.264 55.4767 56.8587 56.202 56.048L57.162 57.008C56.2233 58.1173 54.9433 58.672 53.322 58.672ZM55.69 51.888C55.69 50.864 55.434 50.0533 54.922 49.456C54.41 48.8587 53.7273 48.56 52.874 48.56C52.106 48.56 51.4233 48.8373 50.826 49.392C50.2287 49.9467 49.866 50.7787 49.738 51.888H55.69ZM63.375 38V0.239998H67.215V38H63.375ZM69.135 38V0.239998H72.975V38H69.135ZM76.815 38V0.239998H80.655V38H76.815ZM84.5 38V0.239998H86.42V38H84.5ZM92.18 38V0.239998H94.1V38H92.18ZM99.86 38V0.239998H103.7V38H99.86ZM95.892 58.672C94.7827 58.672 93.8013 58.3947 92.948 57.84C92.052 57.2853 91.348 56.4533 90.836 55.344C90.324 54.192 90.068 52.7627 90.068 51.056C90.068 49.264 90.3453 47.792 90.9 46.64C91.4547 45.5307 92.1587 44.72 93.012 44.208C93.8653 43.7387 94.7827 43.504 95.764 43.504C96.8307 43.504 97.748 43.76 98.516 44.272C99.284 44.784 99.86 45.488 100.244 46.384L98.836 47.088L98.644 47.152L98.58 47.024V46.832C98.58 46.6613 98.4733 46.4267 98.26 46.128C97.9187 45.6587 97.5347 45.3173 97.108 45.104C96.6813 44.8907 96.2333 44.784 95.764 44.784C94.484 44.784 93.4813 45.3387 92.756 46.448C92.0733 47.5147 91.732 49.0293 91.732 50.992C91.732 52.1867 91.9027 53.2747 92.244 54.256C92.628 55.1947 93.1187 55.92 93.716 56.432C94.356 56.944 95.06 57.2 95.828 57.2C96.4253 57.2 96.98 57.0507 97.492 56.752C98.0467 56.4107 98.4947 55.9627 98.836 55.408L100.052 56.24C99.54 57.0507 98.964 57.648 98.324 58.032C97.6413 58.4587 96.8307 58.672 95.892 58.672ZM105.625 38V0.239998H107.545V38H105.625ZM111.385 38V0.239998H115.225V38H111.385ZM122.905 38V0.239998H124.825V38H122.905ZM111.961 42.608H113.881V42.736C113.753 42.864 113.689 42.9707 113.689 43.056C113.646 43.184 113.625 43.376 113.625 43.632V49.456C114.052 48.816 114.585 48.2827 115.225 47.856C115.865 47.472 116.526 47.28 117.209 47.28C118.233 47.28 119.044 47.6427 119.641 48.368C120.238 49.0933 120.537 50.2453 120.537 51.824V58.416H118.873V51.888C118.873 50.7787 118.681 49.9893 118.297 49.52C117.913 49.008 117.422 48.752 116.825 48.752C116.313 48.752 115.822 48.9013 115.353 49.2C114.841 49.456 114.436 49.8613 114.137 50.416C113.796 50.928 113.625 51.504 113.625 52.144V58.416H111.961V42.608ZM126.75 38V0.239998H128.67V38H126.75ZM130.59 38V0.239998H134.43V38H130.59ZM138.27 38V0.239998H140.19V38H138.27ZM137.822 58.672C136.201 58.672 134.921 58.1813 133.982 57.2C133.001 56.2187 132.51 54.832 132.51 53.04C132.51 51.8453 132.745 50.8 133.214 49.904C133.641 49.0507 134.238 48.4107 135.006 47.984C135.731 47.5147 136.563 47.28 137.502 47.28C138.825 47.28 139.891 47.7067 140.702 48.56C141.513 49.456 141.918 50.7573 141.918 52.464C141.918 52.6347 141.918 52.8907 141.918 53.232H134.174C134.217 54.5547 134.579 55.5573 135.262 56.24C135.945 56.9227 136.819 57.264 137.886 57.264C139.038 57.264 139.977 56.8587 140.702 56.048L141.662 57.008C140.723 58.1173 139.443 58.672 137.822 58.672ZM140.19 51.888C140.19 50.864 139.934 50.0533 139.422 49.456C138.91 48.8587 138.227 48.56 137.374 48.56C136.606 48.56 135.923 48.8373 135.326 49.392C134.729 49.9467 134.366 50.7787 134.238 51.888H140.19ZM147.875 38V0.239998H149.795V38H147.875ZM157.475 38V0.239998H159.395V38H157.475ZM161.315 38V0.239998H165.155V38H161.315ZM159.267 58.672C158.2 58.672 157.262 58.4373 156.451 57.968C155.64 57.456 155 56.7733 154.531 55.92C154.062 55.0667 153.827 54.0853 153.827 52.976C153.827 51.9093 154.062 50.9493 154.531 50.096C155 49.2427 155.64 48.56 156.451 48.048C157.262 47.5787 158.2 47.344 159.267 47.344C160.12 47.344 160.91 47.5147 161.635 47.856C162.318 48.1973 162.894 48.688 163.363 49.328L162.275 50.416L162.147 50.544L162.019 50.416C162.019 50.288 161.976 50.16 161.891 50.032C161.848 49.9467 161.742 49.8187 161.571 49.648C161.23 49.3493 160.867 49.136 160.483 49.008C160.056 48.8373 159.587 48.752 159.075 48.752C158.435 48.752 157.859 48.9227 157.347 49.264C156.792 49.6053 156.366 50.096 156.067 50.736C155.726 51.3333 155.555 52.0373 155.555 52.848C155.555 53.6587 155.726 54.4053 156.067 55.088C156.408 55.728 156.856 56.2187 157.411 56.56C158.008 56.944 158.648 57.136 159.331 57.136C160.44 57.136 161.4 56.688 162.211 55.792L163.171 56.944C162.104 58.096 160.803 58.672 159.267 58.672ZM169 38V0.239998H172.84V38H169ZM180.52 38V0.239998H182.44V38H180.52ZM186.28 38V0.239998H188.2V38H186.28ZM178.344 52.976L176.936 54.32V58.416H175.208V42.608H177.128V42.736C177.043 42.864 176.979 42.9707 176.936 43.056C176.936 43.184 176.936 43.376 176.936 43.632V52.528L182.376 47.472C182.76 47.5573 183.187 47.6 183.656 47.6H184.232L179.688 51.952L185 58.416L182.824 58.48L178.344 52.976Z" fill="#040404"/>
</svg>
