<svg width="193" height="79" viewBox="0 0 193 79" fill="none" xmlns="http://www.w3.org/2000/svg">
<path d="M0.5 42C0.5 37.8579 3.85786 34.5 8 34.5H27C31.1421 34.5 34.5 37.8579 34.5 42V63C34.5 67.1421 31.1421 70.5 27 70.5H8C3.85786 70.5 0.5 67.1421 0.5 63V42ZM43 17C43 12.8579 46.3579 9.5 50.5 9.5H69.5C73.6421 9.5 77 12.8579 77 17V38C77 42.1421 73.6421 45.5 69.5 45.5H50.5C46.3579 45.5 43 42.1421 43 38V17Z" fill="white" stroke="#E58833"/>
<path d="M86.5859 27.3984V24.4922H110.305V27.3984H100.18V60H96.7109V27.3984H86.5859ZM108.195 47.4844C108.195 43.7031 109.039 40.6797 110.727 38.4141C112.43 36.1484 114.805 35.0156 117.852 35.0156C120.898 35.0156 123.258 36.1562 124.93 38.4375C126.617 40.7188 127.461 43.7656 127.461 47.5781C127.461 51.3906 126.609 54.4609 124.906 56.7891C123.219 59.1172 120.867 60.2812 117.852 60.2812C114.773 60.2812 112.383 59.0781 110.68 56.6719C109.023 54.3125 108.195 51.25 108.195 47.4844ZM111.289 47.625C111.289 52.5781 112.578 55.7188 115.156 57.0469C115.938 57.4531 116.836 57.6562 117.852 57.6562C118.867 57.6562 119.766 57.4531 120.547 57.0469C121.344 56.6406 121.977 56.1172 122.445 55.4766C122.914 54.8359 123.297 54.0625 123.594 53.1562C124.109 51.5781 124.367 49.7422 124.367 47.6484C124.367 40.9766 122.188 37.6406 117.828 37.6406C113.469 37.6406 111.289 40.9688 111.289 47.625ZM144.383 60V24.4922H152.844C160.688 24.4922 165.484 27.9766 167.234 34.9453C167.797 37.1953 168.078 39.4922 168.078 41.8359C168.078 44.1797 167.914 46.1797 167.586 47.8359C167.258 49.4922 166.711 51.0781 165.945 52.5938C165.195 54.0938 164.25 55.3828 163.109 56.4609C160.594 58.8203 157.172 60 152.844 60H144.383ZM147.852 57.0938H152.844C157.953 57.0938 161.422 54.9141 163.25 50.5547C164.156 48.3672 164.609 45.6953 164.609 42.5391C164.609 36.9297 163.531 32.9297 161.375 30.5391C160.531 29.6172 159.383 28.8672 157.93 28.2891C156.492 27.6953 154.797 27.3984 152.844 27.3984H147.852V57.0938ZM171.43 47.4844C171.43 43.7031 172.273 40.6797 173.961 38.4141C175.664 36.1484 178.039 35.0156 181.086 35.0156C184.133 35.0156 186.492 36.1562 188.164 38.4375C189.852 40.7188 190.695 43.7656 190.695 47.5781C190.695 51.3906 189.844 54.4609 188.141 56.7891C186.453 59.1172 184.102 60.2812 181.086 60.2812C178.008 60.2812 175.617 59.0781 173.914 56.6719C172.258 54.3125 171.43 51.25 171.43 47.4844ZM174.523 47.625C174.523 52.5781 175.812 55.7188 178.391 57.0469C179.172 57.4531 180.07 57.6562 181.086 57.6562C182.102 57.6562 183 57.4531 183.781 57.0469C184.578 56.6406 185.211 56.1172 185.68 55.4766C186.148 54.8359 186.531 54.0625 186.828 53.1562C187.344 51.5781 187.602 49.7422 187.602 47.6484C187.602 40.9766 185.422 37.6406 181.062 37.6406C176.703 37.6406 174.523 40.9688 174.523 47.625Z" fill="black"/>
</svg>
